<?xml version="1.0" standalone="no"?><!DOCTYPE svg PUBLIC "-//W3C//DTD SVG 1.1//EN" "http://www.w3.org/Graphics/SVG/1.1/DTD/svg11.dtd"><svg t="1756805077239" class="icon" viewBox="0 0 1024 1024" version="1.1" xmlns="http://www.w3.org/2000/svg" p-id="1562" xmlns:xlink="http://www.w3.org/1999/xlink" width="200" height="200"><path d="M906.169682 125.872893c-6.899914-32.605391-42.344378-68.928824-77.613047-78.601889C717.775657 17.85188 606.999073 2.544618 496.218094 1.296481c44.445116 107.159622 56.724326 222.49806 31.59897 329.508257-32.403227-34.275433-71.042747-69.755056-109.937167-105.151176-42.898129 35.189562-89.109974 69.992378-132.654146 105.151176 9.629116-109.396601 21.838009-210.038661 31.497888-319.206729a1367.246558 1367.246558 0 0 0-121.280274 20.901905C160.174695 40.476567 124.49291 76.51873 117.342489 110.482129 63.329785 377.442884 58.838249 644.487142 103.87667 911.64127c5.963811 33.972189 41.891708 70.370335 78.641442 78.667812 219.654592 48.075262 439.313579 42.950867 658.968171-15.37758 36.754129-10.068601 72.440309-46.761202 78.149219-79.322644 43.095897-256.487828 38.604361-513.067948-13.46582-769.735965z" fill="#333333" p-id="1563"></path></svg>