<?xml version="1.0" standalone="no"?><!DOCTYPE svg PUBLIC "-//W3C//DTD SVG 1.1//EN" "http://www.w3.org/Graphics/SVG/1.1/DTD/svg11.dtd"><svg t="1756805075085" class="icon" viewBox="0 0 1024 1024" version="1.1" xmlns="http://www.w3.org/2000/svg" p-id="1406" xmlns:xlink="http://www.w3.org/1999/xlink" width="200" height="200"><path d="M919.635502 895.608858c-5.70891 32.565837-41.39509 69.254043-78.149219 79.322644-219.654592 58.332841-439.313579 63.457236-658.968171 15.37758-36.749734-8.301871-72.677631-44.695622-78.641442-78.672206C58.838249 644.491536 63.329785 377.442884 117.342489 110.482129c7.150421-33.963399 42.832206-70.005562 78.096481-77.982215 211.040687-46.194266 422.081373-41.272034 633.117665 14.77109 35.273064 9.673064 70.713133 45.996498 77.613047 78.601889 52.07018 256.668017 56.561717 513.248137 13.46582 769.735965z" fill="#2DB194" p-id="1407"></path><path d="M316.86867 9.980704c-9.677459 109.800927-21.965459 210.882472-31.642919 320.824034 43.544172-35.158798 89.756017-69.961614 132.658541-105.151176 38.894421 35.39612 77.53394 70.875742 109.937167 105.151176 25.129751-107.045356 12.841751-222.427742-31.642918-329.613734-128.101082-1.586541-179.309871 8.7897-179.309871 8.7897z" fill="#FFFFFF" p-id="1408"></path></svg>